HIERARCHY
ROOT Hips
{
	OFFSET -0.001795 -0.223333 0.028219
	CHANNELS 6 Xposition Yposition Zposition Zrotation Yrotation Xrotation 
	JOINT LeftUpLeg
	{
		OFFSET 0.069520 -0.091406 -0.006815
		CHANNELS 3 Zrotation Yrotation Xrotation
		JOINT LeftLeg
		{
			OFFSET 0.034277 -0.375199 -0.004496
			CHANNELS 3 Zrotation Yrotation Xrotation
			JOINT LeftFoot
			{
				OFFSET -0.013596 -0.397961 -0.043693
				CHANNELS 3 Zrotation Yrotation Xrotation
				JOINT LeftToe
				{
					OFFSET 0.026358 -0.055791 0.119288
					CHANNELS 3 Zrotation Yrotation Xrotation
					End Site
					{
						OFFSET 0.000000 0.000000 0.000000
					}
				}
			}
		}
	}
	JOINT RightUpLeg
	{
		OFFSET -0.067670 -0.090522 -0.004320
		CHANNELS 3 Zrotation Yrotation Xrotation
		JOINT RightLeg
		{
			OFFSET -0.038290 -0.382569 -0.008850
			CHANNELS 3 Zrotation Yrotation Xrotation
			JOINT RightFoot
			{
				OFFSET 0.015774 -0.398415 -0.042312
				CHANNELS 3 Zrotation Yrotation Xrotation
				JOINT RightToe
				{
					OFFSET -0.025372 -0.048144 0.123348
					CHANNELS 3 Zrotation Yrotation Xrotation
					End Site
					{
						OFFSET 0.000000 0.000000 0.000000
					}
				}
			}
		}
	}
	JOINT Spine
	{
		OFFSET -0.002533 0.108963 -0.026696
		CHANNELS 3 Zrotation Yrotation Xrotation
		JOINT Spine1
		{
			OFFSET 0.005487 0.135180 0.001092
			CHANNELS 3 Zrotation Yrotation Xrotation
			JOINT Spine2
			{
				OFFSET 0.001457 0.052922 0.025425
				CHANNELS 3 Zrotation Yrotation Xrotation
				JOINT Neck
				{
					OFFSET -0.002778 0.213870 -0.042857
					CHANNELS 3 Zrotation Yrotation Xrotation
					JOINT Head
					{
						OFFSET 0.005152 0.064970 0.051349
						CHANNELS 3 Zrotation Yrotation Xrotation
						End Site
						{
							OFFSET 0.000000 0.000000 0.000000
						}
					}
				}
				JOINT LeftShoulder
				{
					OFFSET 0.078845 0.121749 -0.034090
					CHANNELS 3 Zrotation Yrotation Xrotation
					JOINT LeftArm
					{
						OFFSET 0.090977 0.030469 -0.008868
						CHANNELS 3 Zrotation Yrotation Xrotation
						JOINT LeftForeArm
						{
							OFFSET 0.259612 -0.012772 -0.027456
							CHANNELS 3 Zrotation Yrotation Xrotation
							JOINT LeftHand
							{
								OFFSET 0.249234 0.008986 -0.001171
								CHANNELS 3 Zrotation Yrotation Xrotation
								End Site
								{
									OFFSET 0.000000 0.000000 0.000000
								}
							}
						}
					}
				}
				JOINT RightShoulder
				{
					OFFSET -0.081759 0.118833 -0.038615
					CHANNELS 3 Zrotation Yrotation Xrotation
					JOINT RightArm
					{
						OFFSET -0.096012 0.032551 -0.009143
						CHANNELS 3 Zrotation Yrotation Xrotation
						JOINT RightForeArm
						{
							OFFSET -0.253742 -0.013329 -0.021401
							CHANNELS 3 Zrotation Yrotation Xrotation
							JOINT RightHand
							{
								OFFSET -0.255298 0.007772 -0.005559
								CHANNELS 3 Zrotation Yrotation Xrotation
								End Site
								{
									OFFSET 0.000000 0.000000 0.000000
								}
							}
						}
					}
				}
			}
		}
	}
}
MOTION
Frames: 16
Frame Time: 0.050000
-1.085596 0.657331 0.670582 7.082840 42.013988 11.778917 42.317265 -2.220390 -64.024019 -9.342385 -1.492249 55.074866 -3.794710 7.127888 31.849826 0.000000 0.000000 0.000000 -49.014070 -24.831289 -23.099531 2.434004 -11.847975 78.876719 -6.606897 -12.237907 -16.552650 0.000000 0.000000 0.000000 -1.694631 -2.342316 22.259639 1.698167 1.145307 -20.159415 27.856343 40.606758 45.392845 14.014034 -3.625866 -8.791670 0.000000 0.000000 0.000000 -3.401147 13.521786 -15.996036 -36.034456 -3.584829 -4.320408 -115.326593 -42.852219 34.311972 0.000000 0.000000 0.000000 -15.498311 27.435232 7.538647 97.514509 56.635842 79.702896 -11.229398 52.829201 -4.992471 0.000000 0.000000 0.000000 
-1.088368 0.657509 0.670427 8.215687 42.317212 11.256187 40.571330 -2.801036 -62.916233 -9.041331 -2.111635 54.820734 -3.229707 7.569857 30.088612 0.000000 0.000000 0.000000 -49.612994 -24.230682 -21.391485 2.298744 -12.024970 79.384799 -6.499153 -11.509471 -17.232909 0.000000 0.000000 0.000000 -1.801024 -2.744523 24.159647 6.514576 0.005016 -23.424085 25.006549 42.212404 49.403052 16.233457 -5.269389 -9.056462 0.000000 0.000000 0.000000 -1.573509 14.846162 -15.538579 -37.633019 -5.598373 -4.436632 -112.733529 -44.453546 32.748108 0.000000 0.000000 0.000000 -16.761621 28.823073 7.998219 98.349529 59.431483 84.648802 -18.820969 48.841951 -9.051367 0.000000 0.000000 0.000000 
-1.091400 0.657993 0.670556 8.699456 40.947416 10.488982 38.804371 -2.906612 -60.430776 -7.869375 -3.054428 53.838663 -3.799160 6.997264 29.795666 0.000000 0.000000 0.000000 -49.246858 -24.037257 -22.259729 2.328218 -11.677669 80.567723 -6.954710 -13.063011 -17.301738 0.000000 0.000000 0.000000 -2.040458 -2.952214 25.766329 2.339022 0.996793 -23.999735 28.449967 41.322862 47.423207 18.028926 -5.275515 -11.203303 0.000000 0.000000 0.000000 -1.393725 15.978826 -15.221947 -39.260044 -6.345255 -4.717465 -107.941405 -44.740123 30.704015 0.000000 0.000000 0.000000 -15.697753 27.257196 7.369878 99.024429 58.886148 84.527141 -12.971270 49.371476 -5.977645 0.000000 0.000000 0.000000 
-1.094617 0.658116 0.670844 10.330564 40.041933 12.250031 38.479365 -2.736187 -59.923511 -8.327812 -2.581622 53.035953 -4.393464 6.294555 30.062744 0.000000 0.000000 0.000000 -49.594225 -24.612059 -23.476206 1.974297 -10.899602 81.314883 -6.983849 -12.831858 -18.116350 0.000000 0.000000 0.000000 -2.915947 -2.261916 23.622857 2.926939 0.803648 -23.627839 28.390578 40.667767 48.730096 17.042669 -4.339516 -11.255907 0.000000 0.000000 0.000000 -3.034192 15.017933 -16.518290 -39.597245 -4.825630 -5.039071 -105.142554 -45.366985 31.075998 0.000000 0.000000 0.000000 -17.169386 28.166250 6.739507 96.461752 61.134471 84.603663 -14.289003 48.332032 -6.467510 0.000000 0.000000 0.000000 
-1.098006 0.657271 0.671152 10.653663 40.884851 11.908856 37.163196 -3.424167 -59.830558 -6.641162 -3.976085 53.439260 -4.754258 6.164402 30.547471 0.000000 0.000000 0.000000 -49.719339 -24.662544 -22.640352 1.921605 -11.232226 81.967004 -7.267342 -13.802323 -17.675750 0.000000 0.000000 0.000000 -2.672480 -2.476306 24.315090 4.065450 0.573646 -25.781218 28.801690 39.796243 50.269081 16.673606 -4.546868 -10.344556 0.000000 0.000000 0.000000 -2.879174 15.040839 -16.681742 -41.151464 -4.460891 -5.566157 -101.254465 -44.070911 26.728771 0.000000 0.000000 0.000000 -16.949729 27.147989 6.155764 96.254228 60.177520 83.677785 -12.970082 47.678097 -5.918684 0.000000 0.000000 0.000000 
-1.101432 0.657022 0.671303 11.869143 41.335537 12.710638 36.607910 -3.895486 -60.068766 -7.121157 -3.854222 53.415343 -4.369135 6.843739 30.841745 0.000000 0.000000 0.000000 -50.719836 -25.324551 -21.967151 2.415900 -11.687551 81.999091 -7.692250 -14.657048 -19.910889 0.000000 0.000000 0.000000 -2.699478 -2.337543 23.461082 4.720146 0.351541 -22.136778 24.923898 40.273795 45.377734 15.433121 -2.860022 -11.737067 0.000000 0.000000 0.000000 -2.271492 13.527467 -14.611284 -41.171882 -2.777765 -6.088845 -100.179173 -43.195723 24.181315 0.000000 0.000000 0.000000 -17.148566 25.505246 5.353585 99.772698 58.847544 86.413948 -10.825423 45.195052 -4.763309 0.000000 0.000000 0.000000 
-1.104630 0.657147 0.671047 12.674246 41.837361 12.460790 34.798772 -4.445491 -59.523891 -6.613025 -4.558150 53.826146 -3.657877 7.691019 29.966686 0.000000 0.000000 0.000000 -51.906275 -25.623015 -20.994208 2.983048 -12.072156 82.437663 -8.297209 -16.682143 -21.089549 0.000000 0.000000 0.000000 -2.693308 -2.395301 23.617964 2.896073 0.799635 -23.962165 28.340297 37.243135 46.625104 14.165255 -2.414875 -10.563304 0.000000 0.000000 0.000000 -4.419766 12.638364 -16.139292 -40.168230 0.064193 -6.337896 -98.469874 -41.326375 22.651989 0.000000 0.000000 0.000000 -17.412871 24.578495 3.881205 98.043614 57.091013 82.487283 -5.290208 46.248290 -2.074293 0.000000 0.000000 0.000000 
-1.107431 0.657583 0.670408 13.295577 41.081852 11.850293 33.258697 -4.440453 -56.832936 -5.639272 -5.365426 53.081360 -4.172170 6.173233 26.663470 0.000000 0.000000 0.000000 -51.880685 -25.669349 -21.614138 2.051491 -10.743372 83.593027 -7.942089 -15.306310 -20.714469 0.000000 0.000000 0.000000 -2.260508 -2.502974 23.806006 2.802173 0.776047 -23.850473 27.186731 36.419871 47.327786 14.935174 -1.105594 -13.544185 0.000000 0.000000 0.000000 -4.964945 13.645056 -16.695150 -39.587122 0.715794 -6.475870 -97.421796 -38.933777 20.266087 0.000000 0.000000 0.000000 -14.962997 23.470304 4.559309 100.251829 59.666049 86.613481 -0.673833 43.570871 0.215349 0.000000 0.000000 0.000000 
-1.109866 0.657696 0.669514 12.894910 42.502387 11.978519 33.042118 -4.956035 -56.795380 -4.763792 -5.854151 51.424392 -3.923043 6.673519 26.022558 0.000000 0.000000 0.000000 -52.251373 -26.151226 -20.756344 2.864164 -12.005576 83.215428 -8.369820 -16.532165 -22.165079 0.000000 0.000000 0.000000 -0.181279 -2.951342 23.534524 1.568226 1.064002 -26.864529 28.698070 33.775418 47.842187 14.670673 -3.777361 -8.812523 0.000000 0.000000 0.000000 -4.020036 11.054022 -14.722444 -42.098878 1.907250 -7.694621 -94.491858 -37.963992 16.712852 0.000000 0.000000 0.000000 -13.355654 23.913410 5.229594 97.143516 58.396113 80.271714 3.195865 44.948364 2.165838 0.000000 0.000000 0.000000 
-1.112088 0.658979 0.668740 13.274917 40.081305 11.196763 33.285381 -3.871286 -53.388389 -5.908446 -4.883209 50.387192 -3.991581 5.517696 23.463245 0.000000 0.000000 0.000000 -50.684447 -25.902006 -23.909279 0.701077 -8.858134 84.088099 -7.787350 -14.172131 -22.950543 0.000000 0.000000 0.000000 -1.808529 -2.571108 23.902861 5.334504 0.178063 -23.897876 25.916485 36.519180 47.801042 14.547783 -2.924899 -10.193929 0.000000 0.000000 0.000000 -4.001869 11.760860 -14.674743 -42.473234 3.460354 -8.504429 -95.802330 -36.425872 15.687211 0.000000 0.000000 0.000000 -14.499743 26.195170 5.956791 97.956486 59.628985 82.338962 2.409912 44.084778 1.503549 0.000000 0.000000 0.000000 
-1.114046 0.660664 0.668152 11.870212 40.492890 9.684231 33.012235 -3.832658 -51.990531 -4.980897 -5.651055 50.570858 -4.466626 3.420916 20.156435 0.000000 0.000000 0.000000 -49.755360 -24.987901 -23.234714 1.375133 -10.103925 83.493107 -7.951787 -14.426223 -24.211656 0.000000 0.000000 0.000000 0.520876 -3.217633 24.389626 1.419278 1.158184 -23.013360 25.577605 32.351294 43.049446 12.920829 -4.454915 -6.559628 0.000000 0.000000 0.000000 -4.364777 12.901412 -13.869746 -44.436640 5.328513 -9.820634 -96.229267 -34.644635 15.325700 0.000000 0.000000 0.000000 -11.427349 30.162968 8.878893 93.109757 59.989178 73.401502 8.322092 42.418002 3.892165 0.000000 0.000000 0.000000 
-1.115797 0.661454 0.667860 12.764138 40.931485 10.332625 32.473168 -4.065371 -51.931143 -6.033986 -5.406052 51.607454 -4.086534 3.215755 18.532802 0.000000 0.000000 0.000000 -50.188838 -26.348104 -24.485962 0.856877 -9.204939 85.177367 -7.505012 -12.850779 -21.850438 0.000000 0.000000 0.000000 0.906987 -2.950514 22.770233 5.424573 0.075368 -20.154682 21.173812 33.560281 42.955723 14.272371 -3.985748 -9.193218 0.000000 0.000000 0.000000 -3.645692 12.206289 -12.838737 -44.919896 5.772391 -10.675252 -96.815024 -33.868073 14.428856 0.000000 0.000000 0.000000 -12.256200 29.381984 8.301156 95.081125 60.625421 76.847919 6.184723 39.129309 2.603764 0.000000 0.000000 0.000000 
-1.117477 0.661598 0.667935 12.690380 38.789446 10.625441 32.603176 -3.361639 -50.699742 -5.655226 -5.275689 51.672546 -3.982493 3.777618 19.640871 0.000000 0.000000 0.000000 -49.681899 -25.893051 -26.148787 1.773609 -9.508894 84.602516 -7.492233 -12.091143 -24.088796 0.000000 0.000000 0.000000 1.615951 -2.913985 22.246305 3.752473 0.507106 -20.474601 22.386233 33.103938 43.237788 13.286347 -3.163024 -9.203371 0.000000 0.000000 0.000000 -2.439217 11.356404 -11.269281 -47.322038 7.321760 -12.414797 -93.590191 -33.057264 12.252938 0.000000 0.000000 0.000000 -11.116712 30.206507 9.067526 92.699018 61.057890 73.507932 7.811840 36.626891 3.106879 0.000000 0.000000 0.000000 
-1.119177 0.664455 0.668420 12.292574 36.393774 9.354440 31.901889 -2.711217 -48.080009 -5.502432 -5.411776 52.635017 -3.089883 3.970956 17.188010 0.000000 0.000000 0.000000 -49.308972 -25.430291 -27.729144 2.263844 -8.938697 84.239460 -7.159104 -11.407901 -22.658181 0.000000 0.000000 0.000000 1.201001 -2.941431 23.434627 6.455991 -0.274789 -20.750963 21.258202 34.780526 44.905373 14.122026 -2.463681 -11.525939 0.000000 0.000000 0.000000 -3.937136 12.150977 -12.755325 -45.738334 9.290256 -12.390666 -90.872992 -31.800860 11.198078 0.000000 0.000000 0.000000 -12.423332 29.893727 8.040513 93.120687 62.330789 75.952342 7.461235 34.033298 2.808576 0.000000 0.000000 0.000000 
-1.120810 0.667982 0.669427 10.905410 33.167192 8.447420 31.582913 -1.802478 -45.838226 -3.903114 -6.024974 53.435932 -2.947213 3.193385 15.514030 0.000000 0.000000 0.000000 -47.247856 -23.483901 -29.752410 3.645564 -9.909014 82.884473 -7.661915 -13.968086 -23.084737 0.000000 0.000000 0.000000 2.642630 -3.211152 23.653227 4.097659 0.325162 -22.389508 24.627569 33.348791 46.736314 12.713262 -0.339920 -13.363031 0.000000 0.000000 0.000000 -4.172596 13.062409 -13.039832 -46.739271 10.721681 -13.350950 -90.439224 -28.463622 8.423779 0.000000 0.000000 0.000000 -12.599643 31.909824 8.134191 86.495528 62.878239 68.790774 8.356868 35.717270 3.436226 0.000000 0.000000 0.000000 
-1.122343 0.671803 0.670950 9.852474 30.536073 6.307944 30.970407 -1.126058 -42.445168 -3.552354 -6.216579 54.398212 -2.409514 2.942763 13.339855 0.000000 0.000000 0.000000 -46.389256 -22.145979 -30.657279 4.519971 -9.825010 81.484766 -7.764383 -15.280224 -21.023509 0.000000 0.000000 0.000000 2.771957 -3.351769 24.942567 3.892822 0.314651 -21.422527 24.779148 34.604787 45.804614 12.852447 -0.572841 -13.481223 0.000000 0.000000 0.000000 -3.147056 14.464985 -12.320627 -48.781824 11.767141 -14.757624 -90.219747 -27.133617 7.216437 0.000000 0.000000 0.000000 -12.237957 31.518178 8.162135 82.479966 63.631283 65.442447 8.337429 38.028936 3.938378 0.000000 0.000000 0.000000 
